HIERARCHY
ROOT Hips
{
	OFFSET 0.000000 0.000000 0.000000
	CHANNELS 6 Xposition Yposition Zposition Xrotation Yrotation Zrotation
	JOINT LeftUpLeg_virtual
	{
		OFFSET 0.000000 0.000000 0.000000
		CHANNELS 3 Xrotation Yrotation Zrotation
		JOINT LeftUpLeg
		{
			OFFSET 13.026900 -6.336304 -1.092800
			CHANNELS 3 Xrotation Yrotation Zrotation
			JOINT LeftLeg
			{
				OFFSET 0.524474 -46.096886 9.782700
				CHANNELS 3 Xrotation Yrotation Zrotation
				JOINT LeftFoot
				{
					OFFSET -0.524474 -53.427422 -12.948200
					CHANNELS 3 Xrotation Yrotation Zrotation
					JOINT LeftToeBase
					{
						OFFSET 0.192200 -14.009700 16.364100
						CHANNELS 3 Xrotation Yrotation Zrotation
						JOINT LeftToe_End
						{
							OFFSET -1.784700 -0.561700 9.474800
							CHANNELS 3 Xrotation Yrotation Zrotation
							End Site
							{
								OFFSET 0 0 0
							}
						}
					}
				}
			}
		}
	}
	JOINT RightUpLeg_virtual
	{
		OFFSET 0.000000 0.000000 0.000000
		CHANNELS 3 Xrotation Yrotation Zrotation
		JOINT RightUpLeg
		{
			OFFSET -12.883000 -6.336304 -1.092800
			CHANNELS 3 Xrotation Yrotation Zrotation
			JOINT RightLeg
			{
				OFFSET -0.524587 -46.096825 9.782800
				CHANNELS 3 Xrotation Yrotation Zrotation
				JOINT RightFoot
				{
					OFFSET 0.524587 -53.427383 -12.948300
					CHANNELS 3 Xrotation Yrotation Zrotation
					JOINT RightToeBase
					{
						OFFSET -0.192200 -14.009700 16.364100
						CHANNELS 3 Xrotation Yrotation Zrotation
						JOINT RightToe_End
						{
							OFFSET 1.784700 -0.561700 9.474800
							CHANNELS 3 Xrotation Yrotation Zrotation
							End Site
							{
								OFFSET 0 0 0
							}
						}
					}
				}
			}
		}
	}
	JOINT Spine_virtual
	{
		OFFSET 0.000000 0.000000 0.000000
		CHANNELS 3 Xrotation Yrotation Zrotation
		JOINT Spine
		{
			OFFSET 0.072000 7.257294 -0.789700
			CHANNELS 3 Xrotation Yrotation Zrotation
			JOINT Spine1
			{
				OFFSET 0.000000 12.508769 -0.658067
				CHANNELS 3 Xrotation Yrotation Zrotation
				JOINT Spine1_split
				{
					OFFSET 0.000000 12.508769 -0.658067
					CHANNELS 3 Xrotation Yrotation Zrotation
					JOINT Spine2
					{
						OFFSET 0.000000 12.508769 -0.658067
						CHANNELS 3 Xrotation Yrotation Zrotation
						JOINT Neck_virtual
						{
							OFFSET 0.000000 0.000000 0.000000
							CHANNELS 3 Xrotation Yrotation Zrotation
							JOINT Neck
							{
								OFFSET 0.000000 14.033295 7.520400
								CHANNELS 3 Xrotation Yrotation Zrotation
								JOINT Head
								{
									OFFSET 0.000000 8.198502 5.703100
									CHANNELS 3 Xrotation Yrotation Zrotation
									JOINT HeadTop_End
									{
										OFFSET 0.000000 17.760803 13.332701
										CHANNELS 3 Xrotation Yrotation Zrotation
										End Site
										{
											OFFSET 0 0 0
										}
									}
								}
							}
						}
						JOINT LeftShoulder_virtual
						{
							OFFSET 0.000000 0.000000 0.000000
							CHANNELS 3 Xrotation Yrotation Zrotation
							JOINT LeftShoulder
							{
								OFFSET 6.292450 5.785301 -0.669000
								CHANNELS 3 Xrotation Yrotation Zrotation
								JOINT LeftShoulder_split
								{
									OFFSET 6.292450 5.785301 -0.669000
									CHANNELS 3 Xrotation Yrotation Zrotation
									JOINT LeftArm
									{
										OFFSET 13.907140 -6.093903 1.965100
										CHANNELS 3 Xrotation Yrotation Zrotation
										JOINT LeftForeArm
										{
											OFFSET 34.140198 0.000000 0.000000
											CHANNELS 3 Xrotation Yrotation Zrotation
											JOINT LeftHand
											{
												OFFSET 40.960209 0.000000 0.000000
												CHANNELS 3 Xrotation Yrotation Zrotation
												End Site
												{
													OFFSET 0 0 0
												}
											}
										}
									}
								}
							}
						}
						JOINT RightShoulder_virtual
						{
							OFFSET 0.000000 0.000000 0.000000
							CHANNELS 3 Xrotation Yrotation Zrotation
							JOINT RightShoulder
							{
								OFFSET -6.292450 5.785301 -0.669000
								CHANNELS 3 Xrotation Yrotation Zrotation
								JOINT RightShoulder_split
								{
									OFFSET -6.292450 5.785301 -0.669000
									CHANNELS 3 Xrotation Yrotation Zrotation
									JOINT RightArm
									{
										OFFSET -13.907140 -6.093903 1.965100
										CHANNELS 3 Xrotation Yrotation Zrotation
										JOINT RightForeArm
										{
											OFFSET -34.140198 0.000000 0.000000
											CHANNELS 3 Xrotation Yrotation Zrotation
											JOINT RightHand
											{
												OFFSET -40.960209 0.000000 0.000000
												CHANNELS 3 Xrotation Yrotation Zrotation
												End Site
												{
													OFFSET 0 0 0
												}
											}
										}
									}
								}
							}
						}
					}
				}
			}
		}
	}
}
MOTION
Frames: 12
Frame Time: 0.03333333
0.457798 113.768959 -4.188566 0.000000 0.000000 0.000000 -2.920724 2.537284 1.397700 -10.600092 8.516190 7.568872 24.708908 -2.006262 -0.861679 -11.295278 0.396861 -3.012789 -0.884113 0.018441 0.677159 0.000000 0.000000 0.000000 -3.161107 2.905806 1.112724 -3.416810 -4.010982 -5.500941 19.247297 -7.995225 1.022338 -10.078088 -18.282830 3.497037 -1.579268 -0.099422 0.129250 0.000000 0.000000 0.000000 -2.987501 1.930233 0.951349 -0.076219 -1.999197 -3.013204 0.652355 -0.325431 1.886376 1.229209 -0.236104 -0.099864 0.000000 0.000000 0.000000 -0.096996 -0.234558 1.622770 6.792703 0.499111 -0.354729 -2.465408 1.560782 2.498347 0.000000 0.000000 0.000000 0.206208 -0.038193 1.332202 5.993543 -25.436408 -5.655789 -1.753299 -1.992873 -1.888717 8.968475 5.494977 -79.046285 -1.883298 -14.402192 1.858621 0.000000 0.000000 0.000000 0.264996 -0.023883 2.085779 2.747838 -6.121463 9.254248 -0.298034 3.659486 -0.381289 8.132173 19.504503 71.569966 1.378370 14.536545 -0.067710 0.000000 0.000000 0.000000 
0.272242 113.744598 -4.198336 0.000000 0.000000 0.000000 -2.902314 2.579831 1.394391 -10.592619 8.654900 7.601960 24.677793 -2.052087 -0.907711 -11.333777 0.327262 -2.987834 -0.830477 0.015070 0.695011 0.000000 0.000000 0.000000 -3.136525 2.928218 1.114320 -3.392630 -4.074990 -5.450912 19.334010 -8.054880 1.043750 -10.132201 -18.255041 3.394341 -1.546619 -0.085418 0.115203 0.000000 0.000000 0.000000 -2.983340 1.837221 1.041002 -0.153288 -2.002453 -3.064307 0.593235 -0.331039 1.856839 1.173065 -0.251810 -0.093824 0.000000 0.000000 0.000000 -0.114092 -0.224039 1.598685 6.873179 0.519918 -0.421278 -2.383673 1.632834 2.416202 0.000000 0.000000 0.000000 0.181212 -0.041142 1.308499 6.072938 -25.444651 -5.641189 -1.749164 -1.747330 -2.099406 8.841392 5.267159 -79.189179 -1.876541 -14.624728 1.881357 0.000000 0.000000 0.000000 0.233852 -0.022628 2.105095 2.734571 -6.114456 9.205959 -0.355191 3.941267 -0.418166 8.357264 19.350863 71.582568 1.422596 14.473191 -0.137814 0.000000 0.000000 0.000000 
0.064884 113.710648 -4.159288 0.000000 0.000000 0.000000 -2.911291 2.588108 1.374275 -10.501380 8.780556 7.658958 24.565052 -2.073812 -0.915371 -11.351047 0.290582 -2.958563 -0.799852 0.009967 0.697958 0.000000 0.000000 0.000000 -3.099995 2.894608 1.105896 -3.359562 -4.057858 -5.442990 19.396890 -8.060810 1.077513 -9.947184 -18.184501 3.468807 -1.731107 -0.066585 0.069487 0.000000 0.000000 0.000000 -2.991824 1.808211 1.108073 -0.227492 -1.956415 -3.106901 0.491665 -0.328284 1.829692 1.120770 -0.202992 -0.034313 0.000000 0.000000 0.000000 -0.170620 -0.205192 1.591680 6.906573 0.534194 -0.493385 -2.286338 1.563909 2.348229 0.000000 0.000000 0.000000 0.124721 -0.029186 1.303696 6.109115 -25.497861 -5.697163 -1.809358 -1.538884 -2.304776 8.933463 4.792173 -79.194063 -1.764414 -14.855967 1.891925 0.000000 0.000000 0.000000 0.190017 -0.010470 2.108071 2.693880 -6.019570 9.195458 -0.320755 4.066657 -0.505595 8.436701 19.384743 71.429579 1.391856 14.450358 -0.119292 0.000000 0.000000 0.000000 
-0.101377 113.681992 -4.065504 0.000000 0.000000 0.000000 -2.942349 2.547548 1.334447 -10.347660 8.864229 7.732162 24.394991 -2.046959 -0.880453 -11.343945 0.279552 -2.922337 -0.801894 0.004174 0.686355 0.000000 0.000000 0.000000 -3.041922 2.852429 1.083815 -3.290849 -3.986557 -5.455674 19.401415 -8.040937 1.109950 -9.647678 -18.089385 3.614503 -2.033510 -0.044446 0.012334 0.000000 0.000000 0.000000 -2.991476 1.839168 1.134585 -0.261140 -1.886451 -3.134306 0.369577 -0.323492 1.808563 1.117366 -0.204557 0.073770 0.000000 0.000000 0.000000 -0.257790 -0.181894 1.605073 6.900293 0.558941 -0.554593 -2.167130 1.385201 2.302994 0.000000 0.000000 0.000000 0.034978 -0.009055 1.319447 6.107818 -25.598062 -5.774088 -1.897428 -1.343854 -2.506728 9.192431 4.196841 -79.000645 -1.596657 -15.068506 1.842560 0.000000 0.000000 0.000000 0.122373 0.002188 2.096187 2.632553 -5.844252 9.270852 -0.201884 3.962547 -0.546571 8.372248 19.548235 71.176172 1.289181 14.563464 -0.031700 0.000000 0.000000 0.000000 
-0.195530 113.675621 -3.930952 0.000000 0.000000 0.000000 -2.963849 2.477272 1.273218 -10.164818 8.864307 7.805638 24.210738 -1.964115 -0.797304 -11.325725 0.271738 -2.884794 -0.834816 -0.001452 0.666834 0.000000 0.000000 0.000000 -2.972120 2.829798 1.041556 -3.202636 -3.934484 -5.465281 19.372892 -8.049380 1.138347 -9.353703 -18.006648 3.710483 -2.274456 -0.019596 -0.039126 0.000000 0.000000 0.000000 -2.960988 1.875738 1.111119 -0.222939 -1.819050 -3.138969 0.243297 -0.323919 1.794792 1.133284 -0.214905 0.135146 0.000000 0.000000 0.000000 -0.370997 -0.163764 1.635872 6.854132 0.593709 -0.591263 -2.056494 1.151097 2.276322 0.000000 0.000000 0.000000 -0.074657 0.011765 1.351164 6.100915 -25.736814 -5.771637 -1.932538 -1.157090 -2.709111 9.554394 3.559008 -78.600929 -1.456154 -15.312567 1.693051 0.000000 0.000000 0.000000 0.027143 0.007079 2.073551 2.553859 -5.623197 9.436089 -0.012542 3.688593 -0.556081 8.146961 19.789891 70.896298 1.135203 14.954354 0.127126 0.000000 0.000000 0.000000 
-0.218876 113.676872 -3.795473 0.000000 0.000000 0.000000 -2.956893 2.399508 1.194709 -9.971190 8.735996 7.852538 24.059825 -1.816892 -0.659424 -11.338022 0.247699 -2.846791 -0.869840 -0.007102 0.644310 0.000000 0.000000 0.000000 -2.912107 2.818068 0.987663 -3.166795 -3.962751 -5.466597 19.402377 -8.105894 1.178986 -9.110636 -17.935144 3.758803 -2.397949 0.004521 -0.076387 0.000000 0.000000 0.000000 -2.903728 1.877219 1.038566 -0.083186 -1.776107 -3.123322 0.126027 -0.335810 1.782445 1.209847 -0.196703 0.199765 0.000000 0.000000 0.000000 -0.508125 -0.155536 1.672472 6.774941 0.646259 -0.605273 -1.955723 0.911611 2.266503 0.000000 0.000000 0.000000 -0.196171 0.027204 1.389379 6.115036 -25.909481 -5.629438 -1.874037 -0.995980 -2.876247 9.920574 2.942541 -78.058790 -1.379122 -15.537333 1.441328 0.000000 0.000000 0.000000 -0.094189 0.001878 2.041951 2.464756 -5.403923 9.658162 0.289303 3.372331 -0.504454 7.730803 20.017732 70.680751 0.968259 15.625270 0.335219 0.000000 0.000000 0.000000 
-0.165742 113.664581 -3.691149 0.000000 0.000000 0.000000 -2.924090 2.320598 1.113192 -9.758856 8.469542 7.833965 23.986537 -1.594962 -0.471773 -11.436165 0.193607 -2.829392 -0.889229 -0.007909 0.619509 0.000000 0.000000 0.000000 -2.888715 2.774616 0.927697 -3.244201 -4.119162 -5.472267 19.602633 -8.177798 1.237015 -8.919971 -17.827914 3.851527 -2.529675 0.025940 -0.111913 0.000000 0.000000 0.000000 -2.831895 1.797506 0.933660 0.175821 -1.775158 -3.093136 0.029221 -0.352362 1.770432 1.327502 -0.072764 0.177152 0.000000 0.000000 0.000000 -0.651879 -0.155699 1.700811 6.665136 0.710777 -0.594924 -1.853730 0.687137 2.262622 0.000000 0.000000 0.000000 -0.310068 0.038607 1.425697 6.163490 -26.067173 -5.325729 -1.731128 -0.856545 -3.035775 10.190940 2.349168 -77.497300 -1.347994 -15.785643 1.139335 0.000000 0.000000 0.000000 -0.215494 -0.008372 1.998597 2.366470 -5.232249 9.897456 0.643171 3.107254 -0.401673 7.114389 20.116558 70.505557 0.825119 16.386338 0.550282 0.000000 0.000000 0.000000 
-0.056354 113.609673 -3.627123 0.000000 0.000000 0.000000 -2.875581 2.196668 1.045948 -9.541171 8.077110 7.735287 23.998162 -1.288371 -0.245247 -11.620302 0.116650 -2.862499 -0.898794 -0.001270 0.593696 0.000000 0.000000 0.000000 -2.915218 2.663863 0.869657 -3.456739 -4.402714 -5.485803 20.040508 -8.250204 1.301562 -8.844094 -17.651398 4.022298 -2.726048 0.046097 -0.155914 0.000000 0.000000 0.000000 -2.780975 1.589401 0.816702 0.554470 -1.833826 -3.059477 -0.043682 -0.365820 1.752999 1.435175 0.133068 0.071869 0.000000 0.000000 0.000000 -0.795479 -0.165737 1.709030 6.542834 0.766211 -0.563769 -1.743485 0.470934 2.259034 0.000000 0.000000 0.000000 -0.395743 0.043389 1.445659 6.243277 -26.189343 -4.875903 -1.548139 -0.721951 -3.160324 10.273061 1.803357 -77.056043 -1.325190 -16.078791 0.864752 0.000000 0.000000 0.000000 -0.293802 -0.012419 1.947006 2.267993 -5.125159 10.077959 0.898894 2.855387 -0.231720 6.273383 20.004926 70.260271 0.711568 17.029432 0.752145 0.000000 0.000000 0.000000 
0.079786 113.479156 -3.625067 0.000000 0.000000 0.000000 -2.820323 1.955370 1.017847 -9.344524 7.632513 7.569053 24.098864 -0.869858 -0.011370 -11.864782 0.016939 -2.964135 -0.901744 0.011155 0.567756 0.000000 0.000000 0.000000 -2.968308 2.443808 0.827855 -3.805392 -4.788664 -5.516093 20.709665 -8.336764 1.360932 -8.977638 -17.372931 4.198267 -2.914043 0.068095 -0.201757 0.000000 0.000000 0.000000 -2.792874 1.226238 0.708148 1.046913 -1.980520 -3.046541 -0.082546 -0.375176 1.723880 1.488316 0.342234 -0.019752 0.000000 0.000000 0.000000 -0.914522 -0.182003 1.695209 6.439123 0.810147 -0.520697 -1.627591 0.270876 2.260100 0.000000 0.000000 0.000000 -0.446807 0.038258 1.437763 6.330333 -26.274635 -4.364564 -1.326638 -0.564282 -3.238347 10.137857 1.466969 -76.810962 -1.227510 -16.462399 0.694085 0.000000 0.000000 0.000000 -0.309106 -0.009098 1.887816 2.177060 -5.082123 10.135426 0.965784 2.664671 0.072483 5.235923 19.552245 69.633703 0.630019 17.306178 0.927352 0.000000 0.000000 0.000000 
0.217515 113.286499 -3.665991 0.000000 0.000000 0.000000 -2.760125 1.512466 1.038415 -9.170809 7.214005 7.367506 24.302988 -0.333382 0.201876 -12.103863 -0.101495 -3.146034 -0.908969 0.024614 0.547313 0.000000 0.000000 0.000000 -3.024215 2.073918 0.822649 -4.289760 -5.229244 -5.573608 21.561536 -8.445000 1.402611 -9.370584 -16.959419 4.294577 -3.043361 0.093148 -0.238873 0.000000 0.000000 0.000000 -2.878630 0.677911 0.618295 1.619599 -2.237277 -3.073695 -0.082582 -0.384280 1.683318 1.417865 0.558674 -0.146112 0.000000 0.000000 0.000000 -0.995519 -0.206935 1.663918 6.392895 0.856457 -0.474825 -1.519300 0.117469 2.275154 0.000000 0.000000 0.000000 -0.453468 0.019156 1.404570 6.419914 -26.349162 -3.861614 -1.128582 -0.392928 -3.295481 9.859020 1.521288 -76.724676 -1.062403 -17.057322 0.665856 0.000000 0.000000 0.000000 -0.251106 -0.006066 1.819292 2.085565 -5.078255 10.012081 0.875590 2.469074 0.407020 4.054025 18.737871 68.199302 0.572019 17.161786 1.094940 0.000000 0.000000 0.000000 
0.337869 113.065384 -3.719896 0.000000 0.000000 0.000000 -2.699178 0.777059 1.111918 -8.982445 6.897449 7.146318 24.587271 0.327055 0.368050 -12.302710 -0.203091 -3.390996 -0.897769 0.034219 0.536047 0.000000 0.000000 0.000000 -3.040678 1.486144 0.854630 -4.934130 -5.673743 -5.693039 22.560702 -8.564606 1.438274 -9.901912 -16.369481 4.302065 -3.161814 0.119944 -0.257092 0.000000 0.000000 0.000000 -3.015581 -0.077877 0.532766 2.259906 -2.628816 -3.148625 -0.043745 -0.403178 1.632121 1.306338 0.729394 -0.215816 0.000000 0.000000 0.000000 -1.028353 -0.242565 1.616741 6.412249 0.920939 -0.437607 -1.438700 0.031077 2.290253 0.000000 0.000000 0.000000 -0.424605 -0.020455 1.345968 6.518010 -26.490839 -3.446645 -0.980856 -0.241477 -3.316609 9.634715 2.154456 -76.607955 -0.831627 -17.861117 0.765683 0.000000 0.000000 0.000000 -0.138974 -0.010660 1.748580 1.994574 -5.047165 9.659513 0.671573 2.193870 0.710754 2.841014 17.679197 65.584836 0.541973 16.708109 1.253742 0.000000 0.000000 0.000000 
0.445657 112.846626 -3.789003 0.000000 0.000000 0.000000 -2.618140 -0.313730 1.224973 -8.737683 6.738465 6.903481 24.875505 1.117897 0.466803 -12.488252 -0.231632 -3.678339 -0.833853 0.038218 0.535535 0.000000 0.000000 0.000000 -2.981997 0.586281 0.911716 -5.791507 -6.100366 -5.911011 23.633896 -8.663023 1.474866 -10.326005 -15.551704 4.294300 -3.354292 0.145340 -0.260315 0.000000 0.000000 0.000000 -3.156276 -1.071176 0.440994 2.976839 -3.171575 -3.261246 0.036519 -0.444036 1.570412 1.169068 0.814222 -0.296965 0.000000 0.000000 0.000000 -1.015987 -0.294212 1.555683 6.482306 0.999751 -0.411029 -1.400568 0.018417 2.270345 0.000000 0.000000 0.000000 -0.362444 -0.082493 1.260516 6.655097 -26.790604 -3.136443 -0.877677 -0.207576 -3.290722 9.761628 3.477666 -76.180679 -0.595984 -18.941778 0.946691 0.000000 0.000000 0.000000 0.002234 -0.036182 1.672513 1.903800 -4.929902 9.078938 0.455937 1.933201 0.875852 1.787158 16.583739 61.555229 0.578469 16.190875 1.403121 0.000000 0.000000 0.000000 
